<svg xmlns="http://www.w3.org/2000/svg" width="137.269" height="64" viewBox="0 0 137.269 64"><defs><style>.a{fill:#3aab58;}.b,.g{fill:#3bab59;}.c{fill:#bbd54b;}.d{fill:#3eac5b;}.e{fill:#42af5f;}.f{fill:#bed753;}.g{font-size:14px;}.g,.h{font-family:Muli-ExtraBold, Muli;font-weight:800;}.h{font-size:25px;}</style></defs><g transform="translate(-1721.806 -455.97)"><g transform="translate(1721.806 455.97)"><path class="a" d="M1754.252,496.867c-5.716-.385-4.855.321-3.248-4.433.213-.63.488-.892,1.189-.811a17.106,17.106,0,0,0,6.756-.679c.927-.27,1.21.03,1.294.849.028.277.079.55.118.826.51,3.52.512,3.534-3.087,4C1756.173,496.757,1755.06,496.8,1754.252,496.867Z" transform="translate(-1715.344 -447.922)"/><path class="b" d="M1754.389,475.291c-.833.214-1.009-.305-1.213-.757a17.39,17.39,0,0,0-3.846-5.408c-.636-.613-.591-.982.069-1.575,3.124-2.811,3.361-2.815,5.929.583a23,23,0,0,1,2.954,5.211c.35.855.329,1.332-.751,1.439C1756.427,474.894,1755.335,475.134,1754.389,475.291Z" transform="translate(-1715.559 -453.769)"/><path class="a" d="M1734.7,477.915a5.5,5.5,0,0,1,.54.48,15.147,15.147,0,0,1,2.4,2.965c.609,1.289-.921,2.054-1.349,3.129a22.782,22.782,0,0,0-1.551,4.2c-.174.933-.605,1.076-1.372.657a5.562,5.562,0,0,0-.605-.272c-3.378-1.371-3.393-1.377-2-4.834a21,21,0,0,1,3.254-5.588C1734.22,478.406,1734.453,478.177,1734.7,477.915Z" transform="translate(-1719.942 -450.906)"/><path class="c" d="M1765.241,478.973a23.347,23.347,0,0,1-2.471,6.036c-2.323,3.834-2.3,3.826-5.125.343a1.214,1.214,0,0,1-.138-1.724,17.905,17.905,0,0,0,2.777-6.186c.122-.537.27-1.018.969-.757,1.193.448,2.377.918,3.559,1.391A.7.7,0,0,1,1765.241,478.973Z" transform="translate(-1713.636 -451.207)"/><path class="c" d="M1740.969,490.537c.7-.192.948.21,1.172.705a17.558,17.558,0,0,0,3.936,5.542c.54.516.662.836-.009,1.44-3.157,2.849-3.633,2.822-6.175-.623a26.753,26.753,0,0,1-2.853-5.078c-.347-.784-.468-1.338.709-1.431C1738.851,491,1739.937,490.723,1740.969,490.537Z" transform="translate(-1718.345 -448.005)"/><path class="c" d="M1742.106,473.491a16.853,16.853,0,0,0-5.6.756c-.684.18-1.052.13-1.115-.668-.043-.549-.2-1.089-.286-1.636-.447-2.763-.452-2.8,2.259-3.276a22.108,22.108,0,0,1,7.446-.174c.942.154,1.113.533.816,1.332a11.582,11.582,0,0,0-.432,1.259C1744.746,472.913,1743.941,474.192,1742.106,473.491Z" transform="translate(-1718.789 -453.136)"/><path class="b" d="M1764.652,487.321c.591.263.788.82,1.112,1.253,2,2.682,2.015,2.71-.735,4.687-1.031.741-2.188,1.3-3.236,2.025-.966.665-1.335.273-1.575-.684-.284-1.127-.983-2.282-.856-3.348.132-1.114,1.745-1.089,2.55-1.818.653-.593,1.4-1.088,2.1-1.627Z" transform="translate(-1713.143 -448.736)"/><path class="c" d="M1765.281,475.24c0,.332-.024.667,0,1,.112,1.258-.318,1.637-1.618,1.3-3.311-.854-3.323-.8-3.507-4.244a4.844,4.844,0,0,1-.057-.993c.127-.79-.839-1.849.017-2.287a8.033,8.033,0,0,1,4.074-.454c.49.026.471.54.558.907A23.5,23.5,0,0,1,1765.281,475.24Z" transform="translate(-1713.047 -452.847)"/><path class="b" d="M1751.983,464.957c-.914.977-1.825,2.1-2.895,3.042-.729.642-1.31-.26-1.871-.585a19.549,19.549,0,0,0-3.611-1.652c-.678-.226-.815-.527-.507-1.221,1.958-4.422.944-3.794,5.12-2.208a21.3,21.3,0,0,1,3.18,1.776C1751.659,464.265,1752.02,464.405,1751.983,464.957Z" transform="translate(-1716.928 -454.776)"/><path class="c" d="M1752.4,500.15c-.591,1.291-1.14,2.56-1.76,3.794-.181.359-.577.144-.9.052a22.61,22.61,0,0,1-5.833-2.743c-.761-.486-.76-.844-.182-1.535,2.347-2.811,2.315-2.82,5.577-1.182.788.4,1.632.679,2.457,1C1752.075,499.655,1752.377,499.759,1752.4,500.15Z" transform="translate(-1716.842 -446.403)"/><path class="b" d="M1729.363,490.64c-.086-2.993-.107-2.876,2.786-2.346,1.724.315,2.481.9,2.214,2.775a11.205,11.205,0,0,0,.3,3.461c.163.9-.125,1.111-.977,1.225-3.906.516-4.081.4-4.319-3.618C1729.337,491.639,1729.363,491.138,1729.363,490.64Z" transform="translate(-1720.068 -448.579)"/><path class="c" d="M1735.665,473.918c.135.665-.095.885-.418,1.038a16.665,16.665,0,0,0-4.385,3.007c-.33.315-.639.437-.959-.017q-1.01-1.433-2.037-2.853a.7.7,0,0,1,.075-1.033,21.811,21.811,0,0,1,5.714-4c.416-.21.779-.207.934.282C1734.993,471.609,1735.36,472.893,1735.665,473.918Z" transform="translate(-1720.451 -452.75)"/><path class="b" d="M1771.212,484.564a19.009,19.009,0,0,1-2.966,5.328c-.033.042-.1.1-.129.095-1.313-.385-1.756-1.719-2.709-2.5a.818.818,0,0,1-.137-1.274c.777-1.142,1.455-2.352,2.173-3.534.113-.187.182-.444.347-.549C1768.268,481.828,1771.237,483.94,1771.212,484.564Z" transform="translate(-1711.831 -449.941)"/><path class="b" d="M1740.328,460.478c3.355-.025,3.291-.043,2.369,3.2-.348,1.226-.871,1.553-2.091,1.33a9.18,9.18,0,0,0-2.976-.011c-1.156.175-1.318-.289-1.205-1.262C1736.839,460.182,1735.835,460.788,1740.328,460.478Z" transform="translate(-1718.439 -454.931)"/><path class="d" d="M1737.768,500.654c-.329.6-.947.763-1.472,1.034-2.247,1.158-2.27,1.161-3.6-.922-.564-.885-1.015-1.84-1.562-2.736-.556-.913-.584-1.38.7-1.623,3.04-.574,3.023-.641,4.544,1.977C1736.83,499.149,1737.3,499.895,1737.768,500.654Z" transform="translate(-1719.736 -446.714)"/><path class="c" d="M1726.667,483.578a22.368,22.368,0,0,1-3.071-2.176c-.524-.517.21-1.226.452-1.809a19.417,19.417,0,0,1,2.069-3.609c.393-.565.71-.81,1.247-.149.63.775,1.306,1.514,1.984,2.249a.807.807,0,0,1,.079,1.178,22.252,22.252,0,0,0-2.217,3.714A3.011,3.011,0,0,1,1726.667,483.578Z" transform="translate(-1721.435 -451.478)"/><path class="c" d="M1755.053,504.371c-3.965.026-3.918.041-2.9-3.349.325-1.086.821-1.425,1.894-1.175a9.2,9.2,0,0,0,3.295.042c.32-.043.815-.246.923.05.431,1.177-.069,2.377-.072,3.574,0,.758-.719.721-1.253.766C1756.167,504.343,1755.393,504.356,1755.053,504.371Z" transform="translate(-1714.937 -445.863)"/><path class="c" d="M1760.713,469.267c-.913.231-1.159-.1-1.365-.54-.33-.7-.689-1.391-1.021-2.092-.369-.779-1.537-1.628-1.09-2.226.6-.8,1.856-1.109,2.838-1.614.59-.3.936.1,1.254.495a21.319,21.319,0,0,1,2.544,4.282c.312.656.167,1.037-.593,1.17C1762.3,468.915,1761.327,469.14,1760.713,469.267Z" transform="translate(-1713.653 -454.42)"/><path class="d" d="M1772.044,478.325c0,.166.007.332,0,.5-.145,2.933-.895,3.5-3.415,1.9-1.371-.87.064-2.708-.205-4.1-.084-.436-.02-.82.631-.923C1771.459,475.317,1772.1,475.853,1772.044,478.325Z" transform="translate(-1711.14 -451.443)"/><path class="e" d="M1735.116,464.868a.6.6,0,0,1-.394.737c-1.162.526-2.319,1.063-3.484,1.58-.133.059-.415.081-.45.02a15.48,15.48,0,0,1-1.376-2.629c-.223-.668.612-.8,1.038-1.1a9.241,9.241,0,0,1,1.292-.759c.781-.377,1.739-1.295,2.374-.822C1734.97,462.529,1734.764,463.935,1735.116,464.868Z" transform="translate(-1720.059 -454.634)"/><path class="d" d="M1738.59,501.757c.252.154.494.277.709.434.489.361.95.759,1.449,1.1,1.815,1.254,1.862,2.11.254,3.65-.743.713-1.232.009-1.732-.277-1.158-.663-2.879-1.11-3.008-2.455C1736.183,503.39,1737.621,502.484,1738.59,501.757Z" transform="translate(-1718.471 -445.404)"/><path class="c" d="M1760.889,503.2c-.511.126-.66-.155-.758-.5a6.942,6.942,0,0,0-.273-.962c-.711-1.606-.329-2.634,1.494-2.954a2.6,2.6,0,0,0,.614-.255c1.852-.875,2.623-.485,3.111,1.555.084.346.153.692-.16.913A19.573,19.573,0,0,1,1760.889,503.2Z" transform="translate(-1713.102 -446.252)"/><path class="c" d="M1758.938,460.838c-.915.788-1.722,1.537-2.588,2.212-.55.427-.9-.149-1.281-.416a8.569,8.569,0,0,0-1.34-.972c-1.713-.738-1.53-1.646-.556-2.965.673-.912,1.153-1.161,2.091-.457.882.663,1.852,1.209,2.774,1.819A11.353,11.353,0,0,1,1758.938,460.838Z" transform="translate(-1714.737 -455.54)"/><path class="c" d="M1724.168,489.283c-1.647.409-2.073-.5-1.9-2.011.037-.329,0-.665.011-1,.059-2.944.05-2.91,2.839-2.146.928.253,1.311.605,1.02,1.615a6.055,6.055,0,0,0-.213,2.137C1726.031,489.2,1725.463,489.585,1724.168,489.283Z" transform="translate(-1721.708 -449.574)"/><path class="e" d="M1770.95,472.161c-.432.764-1.431.524-2.188.745-.608.177-1.785-1.579-1.639-2.583.151-1.051,1.276-1.062,2-1.47C1769.462,468.659,1770.909,471.113,1770.95,472.161Z" transform="translate(-1711.351 -453)"/><path class="e" d="M1747.986,506.816c-.276.711.321,2.028-1.149,1.7-.96-.213-2.476.564-2.752-.889-.115-.6-.15-2.329,1.214-2.213C1746.191,505.491,1747.936,504.863,1747.986,506.816Z" transform="translate(-1716.677 -444.569)"/><path class="e" d="M1726.193,471.228c-.523-.586-1.65-.593-1.858-1.61-.09-.439,1.987-2.919,2.239-2.773a4.255,4.255,0,0,1,1.856,2.036C1728.57,469.222,1726.626,471.26,1726.193,471.228Z" transform="translate(-1721.223 -453.462)"/><path class="f" d="M1725.433,491.751c1.54.342,1.442,1.81,1.606,2.753.18,1.038-1.338,1.455-1.878,1.367-1.417-.23-1.534-1.818-1.711-2.882C1723.221,491.622,1724.776,492.321,1725.433,491.751Z" transform="translate(-1721.432 -447.713)"/><path class="f" d="M1768.09,493.575c.55.542,1.611.629,1.871,1.59.142.523-1.963,3.009-2.294,2.8a4.128,4.128,0,0,1-1.84-2.033C1765.716,495.617,1767.68,493.565,1768.09,493.575Z" transform="translate(-1711.648 -447.292)"/><path class="f" d="M1746.277,457.91c.209-.975-.055-2.3,1.473-1.846.865.258,2.4-.495,2.471,1,.032.71.1,2.448-1.551,2.14C1747.812,459.043,1746.224,459.647,1746.277,457.91Z" transform="translate(-1716.159 -455.97)"/><path class="e" d="M1721.839,476.074c.359-.581-.191-1.862.909-2.01.495-.066,1.92.012,1.642,1.249-.164.724.316,2.113-1.195,2.022C1722.595,477.3,1721.613,477.381,1721.839,476.074Z" transform="translate(-1721.806 -451.799)"/><path class="e" d="M1751.81,506.431c-.006-1.611,1.424-1.2,2.181-1.43.951-.283.944.895.913,1.362-.085,1.323-1.425,1.19-2.255,1.4C1751.443,508.074,1752.2,506.835,1751.81,506.431Z" transform="translate(-1714.882 -444.666)"/><path class="f" d="M1772.2,488.586c-.361.587.238,1.9-.958,1.988-.592.044-1.936-.1-1.628-1.319.18-.713-.305-2.185,1.291-1.968C1771.5,487.367,1772.507,487.286,1772.2,488.586Z" transform="translate(-1710.784 -448.749)"/><path class="f" d="M1742.375,458.171c-.1,1.54-1.468,1.191-2.268,1.4-.986.252-.954-.944-.906-1.39.135-1.262,1.42-1.264,2.289-1.429C1742.547,456.549,1742.045,457.685,1742.375,458.171Z" transform="translate(-1717.796 -455.796)"/><path class="f" d="M1729.907,501.495c-.454.018-2.341-1.684-2.219-1.982a1.9,1.9,0,0,1,1.614-1.259,2.386,2.386,0,0,1,1.835,1.718C1731.3,500.627,1730.437,501.122,1729.907,501.495Z" transform="translate(-1720.45 -446.214)"/><path class="e" d="M1766.814,465.047c-.707.5-1.263,1.216-1.823,1.219a2.228,2.228,0,0,1-1.934-1.722c-.156-.527.633-1.353,1.221-1.317C1765.315,463.29,1765.81,464.371,1766.814,465.047Z" transform="translate(-1712.291 -454.296)"/></g><text class="g" transform="translate(1797.823 478.561)"><tspan x="0" y="0">DECA</tspan></text><text class="h" transform="translate(1798.075 505.407)"><tspan x="0" y="0">Belle</tspan></text></g></svg>